<mxfile host="app.diagrams.net" agent="Mozilla/5.0 (Windows NT 10.0; Win64; x64) AppleWebKit/537.36 (KHTML, like Gecko) Chrome/138.0.0.0 Safari/537.36" version="28.0.6">
  <diagram name="High-Level Architecture" id="DqCzK2gFu2iiCxphEKKk">
    <mxGraphModel dx="1389" dy="767" grid="1" gridSize="10" guides="1" tooltips="1" connect="1" arrows="1" fold="1" page="1" pageScale="1" pageWidth="1200" pageHeight="1920" background="light-dark(#FFFFFF,#FFFFFF)" math="0" shadow="0">
      <root>
        <mxCell id="0" />
        <mxCell id="1" parent="0" />
        <mxCell id="CmZ7dYE1R5sTQZhoTQUD-63" value="" style="rounded=0;whiteSpace=wrap;html=1;strokeWidth=1;strokeColor=light-dark(#dddada, #ededed);" vertex="1" parent="1">
          <mxGeometry x="950" y="177.5" width="230" height="512.5" as="geometry" />
        </mxCell>
        <mxCell id="CmZ7dYE1R5sTQZhoTQUD-3" value="" style="rounded=0;whiteSpace=wrap;html=1;strokeWidth=1;strokeColor=light-dark(#dddada, #ededed);" vertex="1" parent="1">
          <mxGeometry x="270" y="177.5" width="670" height="512.5" as="geometry" />
        </mxCell>
        <mxCell id="CmZ7dYE1R5sTQZhoTQUD-62" value="" style="rounded=0;whiteSpace=wrap;html=1;fillColor=none;strokeColor=#d79b00;fontSize=13;" vertex="1" parent="1">
          <mxGeometry x="310" y="237.5" width="160" height="412.5" as="geometry" />
        </mxCell>
        <mxCell id="CmZ7dYE1R5sTQZhoTQUD-61" value="" style="rounded=0;whiteSpace=wrap;html=1;fillColor=none;strokeColor=#666666;fontSize=13;fontColor=#333333;" vertex="1" parent="1">
          <mxGeometry x="530" y="237.5" width="160" height="412.5" as="geometry" />
        </mxCell>
        <mxCell id="eEVgvNDnGCvfOe_NM2tU-1" value="" style="rounded=0;whiteSpace=wrap;html=1;strokeWidth=1;strokeColor=light-dark(#dddada, #ededed);" parent="1" vertex="1">
          <mxGeometry x="30" y="177.5" width="230" height="512.5" as="geometry" />
        </mxCell>
        <mxCell id="CmZ7dYE1R5sTQZhoTQUD-60" value="" style="rounded=0;whiteSpace=wrap;html=1;fillColor=none;strokeColor=#d6b656;fontSize=13;" vertex="1" parent="1">
          <mxGeometry x="740" y="237.5" width="160" height="412.5" as="geometry" />
        </mxCell>
        <mxCell id="eEVgvNDnGCvfOe_NM2tU-2" value="&lt;h1 style=&quot;margin-top: 0px;&quot;&gt;High-Level Architecture&lt;/h1&gt;" style="text;html=1;whiteSpace=wrap;overflow=hidden;rounded=0;" parent="1" vertex="1">
          <mxGeometry x="30" y="50" width="280" height="40" as="geometry" />
        </mxCell>
        <mxCell id="CmZ7dYE1R5sTQZhoTQUD-1" value="Sources" style="rounded=0;whiteSpace=wrap;html=1;fontSize=24;strokeColor=none;" vertex="1" parent="1">
          <mxGeometry x="99.99999999999999" y="157.5" width="90" height="30" as="geometry" />
        </mxCell>
        <mxCell id="CmZ7dYE1R5sTQZhoTQUD-2" value="Data&amp;nbsp;&lt;span style=&quot;background-color: transparent; color: light-dark(rgb(0, 0, 0), rgb(255, 255, 255));&quot;&gt;Warehouse&lt;/span&gt;" style="rounded=0;whiteSpace=wrap;html=1;fontSize=24;strokeColor=none;align=center;" vertex="1" parent="1">
          <mxGeometry x="560" y="157.5" width="90" height="30" as="geometry" />
        </mxCell>
        <mxCell id="CmZ7dYE1R5sTQZhoTQUD-5" value="Consume" style="rounded=0;whiteSpace=wrap;html=1;fontSize=24;strokeColor=none;" vertex="1" parent="1">
          <mxGeometry x="1020" y="157.5" width="90" height="30" as="geometry" />
        </mxCell>
        <mxCell id="CmZ7dYE1R5sTQZhoTQUD-6" value="&lt;font style=&quot;font-size: 20px;&quot;&gt;Bronze Layer&lt;/font&gt;" style="rounded=0;whiteSpace=wrap;html=1;fillColor=#ffe6cc;strokeColor=#d79b00;fontSize=13;fontStyle=1" vertex="1" parent="1">
          <mxGeometry x="310" y="197.5" width="160" height="30" as="geometry" />
        </mxCell>
        <mxCell id="CmZ7dYE1R5sTQZhoTQUD-8" value="&lt;font style=&quot;font-size: 20px;&quot;&gt;Silver&lt;/font&gt;&lt;span style=&quot;font-size: 20px; background-color: transparent; color: light-dark(rgb(0, 0, 0), rgb(255, 255, 255));&quot;&gt;&amp;nbsp;Layer&lt;/span&gt;" style="rounded=0;whiteSpace=wrap;html=1;fillColor=#f5f5f5;strokeColor=#666666;fontSize=13;fontColor=#333333;fontStyle=1" vertex="1" parent="1">
          <mxGeometry x="530" y="197.5" width="160" height="30" as="geometry" />
        </mxCell>
        <mxCell id="CmZ7dYE1R5sTQZhoTQUD-10" value="&lt;span style=&quot;font-size: 20px; background-color: transparent;&quot;&gt;Gold&lt;/span&gt;&lt;span style=&quot;font-size: 20px; background-color: transparent; color: light-dark(rgb(0, 0, 0), rgb(255, 255, 255));&quot;&gt; Layer&lt;/span&gt;" style="rounded=0;whiteSpace=wrap;html=1;fillColor=#fff2cc;strokeColor=#d6b656;fontSize=13;fontStyle=1" vertex="1" parent="1">
          <mxGeometry x="740" y="197.5" width="160" height="30" as="geometry" />
        </mxCell>
        <mxCell id="CmZ7dYE1R5sTQZhoTQUD-16" value="CRM" style="image;aspect=fixed;html=1;points=[];align=center;fontSize=12;image=img/lib/azure2/general/Folder_Blank.svg;fontStyle=1" vertex="1" parent="1">
          <mxGeometry x="114.47999999999999" y="282.5" width="73.93" height="60" as="geometry" />
        </mxCell>
        <mxCell id="CmZ7dYE1R5sTQZhoTQUD-24" value="ERP&lt;div&gt;&lt;br&gt;&lt;/div&gt;" style="image;aspect=fixed;html=1;points=[];align=center;fontSize=12;image=img/lib/azure2/general/Folder_Blank.svg;fontStyle=1" vertex="1" parent="1">
          <mxGeometry x="114.47999999999999" y="412.5" width="77.01" height="62.5" as="geometry" />
        </mxCell>
        <mxCell id="CmZ7dYE1R5sTQZhoTQUD-13" value="" style="image;aspect=fixed;html=1;points=[];align=center;fontSize=12;image=img/lib/azure2/general/File.svg;" vertex="1" parent="1">
          <mxGeometry x="106.59" y="387.5" width="28.41" height="35" as="geometry" />
        </mxCell>
        <mxCell id="CmZ7dYE1R5sTQZhoTQUD-25" value="" style="image;aspect=fixed;html=1;points=[];align=center;fontSize=12;image=img/lib/azure2/general/File.svg;" vertex="1" parent="1">
          <mxGeometry x="166.59" y="322.5" width="28.41" height="35" as="geometry" />
        </mxCell>
        <mxCell id="CmZ7dYE1R5sTQZhoTQUD-30" value="&lt;font style=&quot;font-size: 10px;&quot;&gt;&lt;b&gt;Object Type&lt;/b&gt;: CSV Files&lt;/font&gt;&lt;div&gt;&lt;font style=&quot;font-size: 10px;&quot;&gt;&lt;br&gt;&lt;/font&gt;&lt;div&gt;&lt;font style=&quot;font-size: 10px;&quot;&gt;&lt;b&gt;Interface:&lt;/b&gt; Files in Folder&lt;/font&gt;&lt;/div&gt;&lt;/div&gt;" style="text;html=1;align=left;verticalAlign=middle;whiteSpace=wrap;rounded=0;" vertex="1" parent="1">
          <mxGeometry x="90" y="525" width="130" height="30" as="geometry" />
        </mxCell>
        <mxCell id="CmZ7dYE1R5sTQZhoTQUD-33" value="&lt;font style=&quot;font-size: 15px;&quot;&gt;Raw Data&lt;/font&gt;" style="html=1;verticalLabelPosition=bottom;align=center;labelBackgroundColor=#ffffff;verticalAlign=top;strokeWidth=2;strokeColor=#d79b00;shadow=0;dashed=0;shape=mxgraph.ios7.icons.data;fillColor=#ffe6cc;" vertex="1" parent="1">
          <mxGeometry x="365" y="257.5" width="50" height="55" as="geometry" />
        </mxCell>
        <mxCell id="CmZ7dYE1R5sTQZhoTQUD-34" value="&lt;font style=&quot;font-size: 15px;&quot;&gt;Cleaned,&lt;/font&gt;&lt;div&gt;&lt;font style=&quot;font-size: 15px;&quot;&gt;&lt;font style=&quot;&quot;&gt;Standardized&lt;/font&gt;&lt;/font&gt;&lt;/div&gt;&lt;div&gt;&lt;font style=&quot;font-size: 15px;&quot;&gt;&lt;span style=&quot;background-color: light-dark(rgb(255, 255, 255), rgb(18, 18, 18)); color: light-dark(rgb(51, 51, 51), rgb(193, 193, 193));&quot;&gt;Data&lt;/span&gt;&lt;/font&gt;&lt;/div&gt;" style="html=1;verticalLabelPosition=bottom;align=center;labelBackgroundColor=#ffffff;verticalAlign=top;strokeWidth=2;strokeColor=#666666;shadow=0;dashed=0;shape=mxgraph.ios7.icons.data;fillColor=#f5f5f5;fontColor=#333333;" vertex="1" parent="1">
          <mxGeometry x="585" y="257.5" width="50" height="55" as="geometry" />
        </mxCell>
        <mxCell id="CmZ7dYE1R5sTQZhoTQUD-35" value="&lt;font style=&quot;font-size: 15px;&quot;&gt;Business Ready&lt;/font&gt;&lt;div&gt;&lt;font style=&quot;font-size: 15px;&quot;&gt;Data&lt;/font&gt;&lt;/div&gt;" style="html=1;verticalLabelPosition=bottom;align=center;labelBackgroundColor=#ffffff;verticalAlign=top;strokeWidth=2;strokeColor=#d6b656;shadow=0;dashed=0;shape=mxgraph.ios7.icons.data;fillColor=#fff2cc;" vertex="1" parent="1">
          <mxGeometry x="795" y="257.5" width="50" height="55" as="geometry" />
        </mxCell>
        <mxCell id="CmZ7dYE1R5sTQZhoTQUD-36" value="" style="shape=singleArrow;whiteSpace=wrap;html=1;fillColor=#d5e8d4;strokeColor=#82b366;" vertex="1" parent="1">
          <mxGeometry x="220" y="265" width="100" height="40" as="geometry" />
        </mxCell>
        <mxCell id="CmZ7dYE1R5sTQZhoTQUD-45" value="" style="endArrow=none;html=1;rounded=0;strokeColor=#B3B3B3;" edge="1" parent="1">
          <mxGeometry width="50" height="50" relative="1" as="geometry">
            <mxPoint x="93.22000000000001" y="504.33" as="sourcePoint" />
            <mxPoint x="209.66999999999996" y="504.33" as="targetPoint" />
          </mxGeometry>
        </mxCell>
        <mxCell id="CmZ7dYE1R5sTQZhoTQUD-46" value="" style="endArrow=none;html=1;rounded=0;strokeColor=#d79b00;fillColor=#ffe6cc;" edge="1" parent="1">
          <mxGeometry width="50" height="50" relative="1" as="geometry">
            <mxPoint x="331.77000000000004" y="376.83" as="sourcePoint" />
            <mxPoint x="448.2200000000001" y="376.83" as="targetPoint" />
          </mxGeometry>
        </mxCell>
        <mxCell id="CmZ7dYE1R5sTQZhoTQUD-47" value="" style="endArrow=none;html=1;rounded=0;strokeColor=#666666;fillColor=#f5f5f5;" edge="1" parent="1">
          <mxGeometry width="50" height="50" relative="1" as="geometry">
            <mxPoint x="546.77" y="376.83" as="sourcePoint" />
            <mxPoint x="663.22" y="376.83" as="targetPoint" />
          </mxGeometry>
        </mxCell>
        <mxCell id="CmZ7dYE1R5sTQZhoTQUD-48" value="" style="endArrow=none;html=1;rounded=0;strokeColor=#d6b656;fillColor=#fff2cc;" edge="1" parent="1">
          <mxGeometry width="50" height="50" relative="1" as="geometry">
            <mxPoint x="761.78" y="376.83" as="sourcePoint" />
            <mxPoint x="878.23" y="376.83" as="targetPoint" />
          </mxGeometry>
        </mxCell>
        <mxCell id="CmZ7dYE1R5sTQZhoTQUD-51" value="&lt;b&gt;Object Type&lt;/b&gt;: Tables&lt;div&gt;&lt;br&gt;&lt;div&gt;&lt;b&gt;Load:&lt;/b&gt;&lt;/div&gt;&lt;/div&gt;&lt;div&gt;&lt;ul&gt;&lt;li&gt;Batch Processing&lt;/li&gt;&lt;li&gt;Full Load&lt;/li&gt;&lt;li&gt;Truncate &amp;amp; Insert&lt;/li&gt;&lt;/ul&gt;&lt;b&gt;No Transformations&lt;/b&gt;&lt;/div&gt;&lt;div&gt;&lt;b&gt;&lt;br&gt;&lt;/b&gt;&lt;/div&gt;&lt;b style=&quot;background-color: transparent; color: light-dark(rgb(0, 0, 0), rgb(255, 255, 255));&quot;&gt;Data Model&lt;/b&gt;&lt;span style=&quot;background-color: transparent; color: light-dark(rgb(0, 0, 0), rgb(255, 255, 255));&quot;&gt;: (None (as-is&lt;/span&gt;)" style="text;html=1;align=left;verticalAlign=middle;whiteSpace=wrap;rounded=0;fontSize=10;" vertex="1" parent="1">
          <mxGeometry x="320" y="440" width="150" height="30" as="geometry" />
        </mxCell>
        <mxCell id="CmZ7dYE1R5sTQZhoTQUD-53" value="&lt;font style=&quot;font-size: 10px;&quot;&gt;&lt;b&gt;Object Type&lt;/b&gt;: Tables&lt;/font&gt;&lt;div&gt;&lt;font style=&quot;font-size: 10px;&quot;&gt;&lt;br&gt;&lt;/font&gt;&lt;div&gt;&lt;b&gt;&lt;font style=&quot;font-size: 10px;&quot;&gt;Load:&lt;/font&gt;&lt;/b&gt;&lt;/div&gt;&lt;/div&gt;&lt;div&gt;&lt;ul&gt;&lt;li&gt;&lt;font style=&quot;font-size: 10px;&quot;&gt;Batch Processing&lt;/font&gt;&lt;/li&gt;&lt;li&gt;&lt;font style=&quot;font-size: 10px;&quot;&gt;Full Load&lt;/font&gt;&lt;/li&gt;&lt;li&gt;&lt;font style=&quot;font-size: 10px;&quot;&gt;Truncate &amp;amp; Insert&lt;/font&gt;&lt;/li&gt;&lt;/ul&gt;&lt;font style=&quot;font-size: 10px;&quot;&gt;&lt;b&gt;Transformations&lt;/b&gt;:&lt;/font&gt;&lt;/div&gt;&lt;div&gt;&lt;ul&gt;&lt;li&gt;&lt;font style=&quot;font-size: 10px;&quot;&gt;Data Cleansing&lt;/font&gt;&lt;/li&gt;&lt;li&gt;&lt;font style=&quot;font-size: 10px;&quot;&gt;Data Standardization&lt;/font&gt;&lt;/li&gt;&lt;li&gt;&lt;font style=&quot;font-size: 10px;&quot;&gt;Data Normalization&lt;/font&gt;&lt;/li&gt;&lt;li&gt;&lt;font style=&quot;font-size: 10px;&quot;&gt;Derived Columns&lt;/font&gt;&lt;/li&gt;&lt;li&gt;&lt;font style=&quot;font-size: 10px;&quot;&gt;Data Enrichment&lt;/font&gt;&lt;/li&gt;&lt;/ul&gt;&lt;/div&gt;&lt;div&gt;&lt;b&gt;&lt;font style=&quot;font-size: 10px;&quot;&gt;&lt;br&gt;&lt;/font&gt;&lt;/b&gt;&lt;/div&gt;&lt;font style=&quot;font-size: 10px;&quot;&gt;&lt;b style=&quot;color: light-dark(rgb(0, 0, 0), rgb(255, 255, 255)); background-color: transparent;&quot;&gt;Data Model&lt;/b&gt;&lt;span style=&quot;color: light-dark(rgb(0, 0, 0), rgb(255, 255, 255)); background-color: transparent;&quot;&gt;: (None (as-is&lt;/span&gt;)&lt;/font&gt;" style="text;html=1;align=left;verticalAlign=middle;whiteSpace=wrap;rounded=0;" vertex="1" parent="1">
          <mxGeometry x="540" y="497.5" width="140" height="30" as="geometry" />
        </mxCell>
        <mxCell id="CmZ7dYE1R5sTQZhoTQUD-57" value="&lt;font style=&quot;font-size: 10px;&quot;&gt;&lt;b&gt;Object Type&lt;/b&gt;: Tables&lt;/font&gt;&lt;div&gt;&lt;font style=&quot;font-size: 10px;&quot;&gt;&lt;br&gt;&lt;/font&gt;&lt;div&gt;&lt;b&gt;&lt;font style=&quot;font-size: 10px;&quot;&gt;No Load&lt;/font&gt;&lt;/b&gt;&lt;/div&gt;&lt;/div&gt;&lt;div&gt;&lt;b&gt;&lt;font style=&quot;font-size: 10px;&quot;&gt;&lt;br&gt;&lt;/font&gt;&lt;/b&gt;&lt;/div&gt;&lt;div&gt;&lt;font style=&quot;font-size: 10px;&quot;&gt;&lt;b&gt;Transformations&lt;/b&gt;:&lt;/font&gt;&lt;/div&gt;&lt;div&gt;&lt;ul&gt;&lt;li&gt;&lt;font style=&quot;font-size: 10px;&quot;&gt;Data Integration&lt;/font&gt;&lt;/li&gt;&lt;li&gt;&lt;font style=&quot;font-size: 10px;&quot;&gt;Aggregation&lt;/font&gt;&lt;/li&gt;&lt;li&gt;&lt;font style=&quot;font-size: 10px;&quot;&gt;Business Logic&lt;/font&gt;&lt;/li&gt;&lt;/ul&gt;&lt;/div&gt;&lt;div&gt;&lt;b&gt;&lt;font style=&quot;font-size: 10px;&quot;&gt;&lt;br&gt;&lt;/font&gt;&lt;/b&gt;&lt;/div&gt;&lt;font style=&quot;font-size: 10px;&quot;&gt;&lt;b style=&quot;color: light-dark(rgb(0, 0, 0), rgb(255, 255, 255)); background-color: transparent;&quot;&gt;Data Model&lt;/b&gt;&lt;span style=&quot;color: light-dark(rgb(0, 0, 0), rgb(255, 255, 255)); background-color: transparent;&quot;&gt;:&lt;/span&gt;&lt;/font&gt;&lt;div&gt;&lt;ul&gt;&lt;li&gt;&lt;font style=&quot;font-size: 10px;&quot;&gt;&lt;span style=&quot;color: light-dark(rgb(0, 0, 0), rgb(255, 255, 255)); background-color: transparent;&quot;&gt;Star Schema&lt;/span&gt;&lt;/font&gt;&lt;/li&gt;&lt;li&gt;&lt;font style=&quot;font-size: 10px;&quot;&gt;&lt;span style=&quot;color: light-dark(rgb(0, 0, 0), rgb(255, 255, 255)); background-color: transparent;&quot;&gt;Flat Table&lt;/span&gt;&lt;/font&gt;&lt;/li&gt;&lt;li&gt;&lt;font style=&quot;font-size: 10px;&quot;&gt;&lt;span style=&quot;color: light-dark(rgb(0, 0, 0), rgb(255, 255, 255)); background-color: transparent;&quot;&gt;Aggregated Table&lt;/span&gt;&lt;/font&gt;&lt;/li&gt;&lt;/ul&gt;&lt;/div&gt;" style="text;html=1;align=left;verticalAlign=middle;whiteSpace=wrap;rounded=0;" vertex="1" parent="1">
          <mxGeometry x="755" y="490" width="130" height="30" as="geometry" />
        </mxCell>
        <mxCell id="CmZ7dYE1R5sTQZhoTQUD-64" value="" style="shape=singleArrow;whiteSpace=wrap;html=1;fillColor=#d5e8d4;strokeColor=#82b366;" vertex="1" parent="1">
          <mxGeometry x="450" y="265" width="110" height="40" as="geometry" />
        </mxCell>
        <mxCell id="CmZ7dYE1R5sTQZhoTQUD-65" value="" style="shape=singleArrow;whiteSpace=wrap;html=1;fillColor=#d5e8d4;strokeColor=#82b366;" vertex="1" parent="1">
          <mxGeometry x="670" y="265" width="100" height="40" as="geometry" />
        </mxCell>
        <mxCell id="CmZ7dYE1R5sTQZhoTQUD-66" value="" style="shape=singleArrow;whiteSpace=wrap;html=1;fillColor=#d5e8d4;strokeColor=#82b366;" vertex="1" parent="1">
          <mxGeometry x="885" y="265" width="100" height="40" as="geometry" />
        </mxCell>
      </root>
    </mxGraphModel>
  </diagram>
</mxfile>
